[Header]
FileType HTR
DataType HTRS
FileVersion 1
NumSegments 22
NumFrames 8
DataFrameRate 24
EulerRotationOrder ZYX
CalibrationUnits mm
RotationUnits Degrees
GlobalAxisofGravity Y
BoneLengthAxis Y
ScaleFactor 1.0
[SegmentNames&Hierarchy]
reference	GLOBAL
Hips	reference
Spine	Hips
Spine1	Spine
Neck	Spine1
Head	Neck
LeftShoulder	Spine1
LeftArm	LeftShoulder
LeftForeArm	LeftArm
LeftHand	LeftForeArm
RightShoulder	Spine1
RightArm	RightShoulder
RightForeArm	RightArm
RightHand	RightForeArm
LeftUpLeg	Hips
LeftLeg	LeftUpLeg
LeftFoot	LeftLeg
LeftToeBase	LeftFoot
RightUpLeg	Hips
RightLeg	RightUpLeg
RightFoot	RightLeg
RightToeBase	RightFoot
[BasePosition]
reference	0	0	0	0	0	0	1
Hips	0	0	0	0	0	0	1
Spine	0	0	0	0	-0	90	1
Spine1	0	0	0	0	0	0	1
Neck	0	0	0	-7.352430803	-7.352430803	90	1
Head	0	0	0	0	-0	90	1
LeftShoulder	0	0	0	0	0	0	1
LeftArm	0	0	0	0	0	0	1
LeftForeArm	0	0	0	0	0	0	1
LeftHand	0	0	0	0	0	0	1
RightShoulder	0	0	0	0	-0	180	1
RightArm	0	0	0	0	-0	180	1
RightForeArm	0	0	0	0	-0	180	1
RightHand	0	0	0	0	-0	180	1
LeftUpLeg	0	0	0	0	-0	-90	1
LeftLeg	0	0	0	0	-0	-90	1
LeftFoot	0	0	0	66.57150701	-66.57150701	-90	1
LeftToeBase	0	0	0	0	-90	0	1
RightUpLeg	0	0	0	0	-0	-90	1
RightLeg	0	0	0	0	-0	-90	1
RightFoot	0	0	0	66.57150701	-66.57150701	-90	1
RightToeBase	0	0	0	0	-90	0	1
[reference]
19	0	0	0	0	-0	0	1.0
20	0	0	0	0	-0	0	1.0
21	0	0	0	0	-0	0	1.0
22	0	0	0	0	-0	0	1.0
23	0	0	0	0	-0	0	1.0
24	0	0	0	0	-0	0	1.0
25	0	0	0	0	-0	0	1.0
26	0	0	0	0	-0	0	1.0
[Hips]
19	5.985789299	8.396450043	0.9000095725	0.5028533936	-105.2136612	3.447280884	1.0
20	5.978558064	8.378058434	0.8764526844	-1.976958394	-105.3222122	5.59369278	1.0
21	5.97105217	8.364555359	0.8605747819	-3.705183268	-105.2981339	7.161960125	1.0
22	5.934023857	8.351575851	0.8447576761	-3.4560709	-105.7567291	6.757294655	1.0
23	5.83376503	8.338871956	0.8289397955	-1.217609525	-106.7859268	4.686635971	1.0
24	5.695997238	8.326194763	0.8130594492	1.222270608	-107.9100952	2.137298822	1.0
25	5.511869907	8.313294411	0.7970546484	2.87663269	-108.9663467	0.1247558594	1.0
26	5.286502361	8.29984951	0.7713985443	3.72640729	-110.5382309	-1.091656685	1.0
[Spine]
19	0	0.7478299737	0	-12.78456688	1.581975698	-88.20317078	1.0
20	0	0.7478299737	0	-11.89138794	1.205791473	-87.5398941	1.0
21	0	0.7478299737	0	-11.49494076	0.8812425733	-87.04055786	1.0
22	0	0.7478299737	0	-11.49724388	0.9365500212	-87.00241089	1.0
23	0	0.7478299737	0	-12.08576775	1.410878181	-87.4527359	1.0
24	0	0.7478299737	0	-12.3787508	1.937159061	-87.82693481	1.0
25	0	0.7478299737	0	-13.06055355	2.460624218	-87.95608521	1.0
26	0	0.7478299737	0	-14.14767551	3.414611578	-87.99660492	1.0
[Spine1]
19	0	2.049309969	0	10.37648678	0.679363668	-2.378824711	1.0
20	0	2.049309969	0	10.51985073	0.5270113349	-2.264010191	1.0
21	0	2.049309969	0	11.09689999	0.4023436904	-2.177050114	1.0
22	0	2.049309969	0	11.54183006	0.4209240675	-2.080729246	1.0
23	0	2.049309969	0	11.62374592	0.5852349997	-2.059297085	1.0
24	0	2.049309969	0	11.51050758	0.8006405234	-2.373787165	1.0
25	0	2.049309969	0	12.04915237	1.045764089	-2.910676718	1.0
26	0	2.049309969	0	12.55507088	1.403407335	-3.082109928	1.0
[Neck]
19	0	2.231709957	0	2.975767612	12.14433479	-84.96687317	1.0
20	0	2.231709957	0	2.600791454	12.7142458	-86.74598694	1.0
21	0	2.231709957	0	1.930400252	12.90508747	-85.9638443	1.0
22	0	2.231709957	0	2.155069113	13.11157131	-85.93102264	1.0
23	0	2.231709957	0	3.014725924	13.33596039	-86.04336548	1.0
24	0	2.231709957	0	3.549190283	13.61099243	-86.22826385	1.0
25	0	2.231709957	0	3.676984072	13.76514816	-86.46513367	1.0
26	0	2.231709957	0	4.480081558	13.92053986	-87.284729	1.0
[Head]
19	0	1.413589954	0.1823999882	-8.038227081	5.712904453	-97.0834198	1.0
20	0	1.413589954	0.1823999882	-8.821996689	5.95279789	-94.85767365	1.0
21	0	1.413589954	0.1823999882	-8.485183716	6.343831539	-97.33209991	1.0
22	0	1.413589954	0.1823999882	-8.539784431	6.593377113	-98.00646973	1.0
23	0	1.413589954	0.1823999882	-8.626522064	6.822976112	-97.93017578	1.0
24	0	1.413589954	0.1823999882	-8.441331863	7.098875046	-97.67620087	1.0
25	0	1.413589954	0.1823999882	-7.941981316	7.25703907	-97.35990143	1.0
26	0	1.413589954	0.1823999882	-7.699560165	7.339251041	-96.86177063	1.0
[LeftShoulder]
19	0.3649300039	1.825889945	-0.04271000251	-11.38146687	-6.588522911	3.696395397	1.0
20	0.3649300039	1.825889945	-0.04271000251	-11.47247028	-6.701328278	3.341115952	1.0
21	0.3649300039	1.825889945	-0.04271000251	-11.88265514	-6.761670113	3.494817495	1.0
22	0.3649300039	1.825889945	-0.04271000251	-11.74162292	-6.816378593	3.55269146	1.0
23	0.3649300039	1.825889945	-0.04271000251	-12.71745205	-6.491387844	4.084778309	1.0
24	0.3649300039	1.825889945	-0.04271000251	-12.54122066	-6.332145214	4.248241901	1.0
25	0.3649300039	1.825889945	-0.04271000251	-13.0873394	-6.193674564	4.891807556	1.0
26	0.3649300039	1.825889945	-0.04271000251	-11.85672379	-5.589879036	5.408725739	1.0
[LeftArm]
19	1.24003005	0	0	36.58482742	8.247192383	-81.52390289	1.0
20	1.24003005	0	0	36.72156143	8.272274017	-81.14495087	1.0
21	1.24003005	0	0	36.4359169	8.603731155	-81.24420929	1.0
22	1.24003005	0	0	35.54466629	9.08258152	-81.30189514	1.0
23	1.24003005	0	0	33.05373764	10.75257587	-81.4563446	1.0
24	1.24003005	0	0	31.09504318	11.29111195	-81.09217834	1.0
25	1.24003005	0	0	31.45168495	11.72444344	-81.05788422	1.0
26	1.24003005	0	0	31.37758827	8.87833786	-80.21440887	1.0
[LeftForeArm]
19	2.847419977	0	0	-10.18609715	-12.12117195	-5.210656166	1.0
20	2.847419977	0	0	-10.82126808	-11.90822601	-4.881483078	1.0
21	2.847419977	0	0	-11.07635307	-12.51843929	-4.485064507	1.0
22	2.847419977	0	0	-12.12763882	-14.46923161	-3.569940805	1.0
23	2.847419977	0	0	-11.37738419	-16.88881111	-3.6103549	1.0
24	2.847419977	0	0	-10.67636108	-20.20558548	-3.452033043	1.0
25	2.847419977	0	0	-10.19522095	-24.63168716	-2.292633533	1.0
26	2.847419977	0	0	-8.832849503	-30.8837471	-2.167739391	1.0
[LeftHand]
19	2.258270025	0	0	-10.60234356	-6.937071323	-2.270184517	1.0
20	2.258270025	0	0	-11.20322514	-6.81419611	-2.145349264	1.0
21	2.258270025	0	0	-11.51341724	-7.46577549	-0.8452743292	1.0
22	2.258270025	0	0	-12.58676529	-7.845671177	0.08009523153	1.0
23	2.258270025	0	0	-11.94272137	-8.854175568	0.3746578097	1.0
24	2.258270025	0	0	-11.50339317	-9.431557655	2.562922478	1.0
25	2.258270025	0	0	-11.13036919	-10.18343735	4.867843151	1.0
26	2.258270025	0	0	-9.901011467	-11.83801651	4.533214092	1.0
[RightShoulder]
19	-0.3646599948	1.825889945	-0.04271000251	-8.597938538	6.208105087	176.1993408	1.0
20	-0.3646599948	1.825889945	-0.04271000251	-9.030088425	6.252235413	176.0609589	1.0
21	-0.3646599948	1.825889945	-0.04271000251	-9.195571899	6.108907223	176.0123291	1.0
22	-0.3646599948	1.825889945	-0.04271000251	-8.995451927	6.18710804	176.1629944	1.0
23	-0.3646599948	1.825889945	-0.04271000251	-9.011943817	6.116958618	176.1405945	1.0
24	-0.3646599948	1.825889945	-0.04271000251	-8.803637505	6.260448456	176.1877136	1.0
25	-0.3646599948	1.825889945	-0.04271000251	-8.574475288	6.651235104	176.0067596	1.0
26	-0.3646599948	1.825889945	-0.04271000251	-8.547276497	7.523806572	175.2613525	1.0
[RightArm]
19	-1.24003005	0	0	43.66677094	-3.698836327	-94.48697662	1.0
20	-1.24003005	0	0	44.0865097	-3.873729944	-94.44061279	1.0
21	-1.24003005	0	0	44.5585556	-3.666304827	-94.38666534	1.0
22	-1.24003005	0	0	44.35141754	-3.747138023	-94.4254303	1.0
23	-1.24003005	0	0	43.19348145	-4.375955582	-94.40000153	1.0
24	-1.24003005	0	0	41.03325653	-5.111652374	-94.58117676	1.0
25	-1.24003005	0	0	39.1566124	-5.353135109	-95.25189972	1.0
26	-1.24003005	0	0	39.20110321	-4.507629395	-96.39742279	1.0
[RightForeArm]
19	-2.847419977	0	0	-1.633018613	15.01100349	178.6633911	1.0
20	-2.847419977	0	0	-2.238581896	15.8991642	178.2224121	1.0
21	-2.847419977	0	0	-2.594449043	16.41894913	177.5954132	1.0
22	-2.847419977	0	0	-3.305766821	16.86268234	176.7969513	1.0
23	-2.847419977	0	0	-3.644808054	17.55914879	176.6728516	1.0
24	-2.847419977	0	0	-4.064924717	19.2767067	176.4760132	1.0
25	-2.847419977	0	0	-4.183767796	22.45788574	176.6390686	1.0
26	-2.847419977	0	0	-3.893059731	26.85709	176.6051178	1.0
[RightHand]
19	-2.258270025	0	0	-1.750146508	7.619026184	175.5916901	1.0
20	-2.258270025	0	0	-2.281871557	8.249454498	175.9628754	1.0
21	-2.258270025	0	0	-2.54858613	8.357980728	175.884552	1.0
22	-2.258270025	0	0	-3.154579163	8.421748161	175.6125641	1.0
23	-2.258270025	0	0	-3.468985081	8.59387207	175.5036011	1.0
24	-2.258270025	0	0	-3.825278997	8.81631279	175.3407898	1.0
25	-2.258270025	0	0	-3.947817802	9.452892303	174.7898407	1.0
26	-2.258270025	0	0	-3.508908987	10.32000351	175.2496948	1.0
[LeftUpLeg]
19	0.9119900465	0	0	-7.056869507	7.582325935	92.33618164	1.0
20	0.9119900465	0	0	-14.35387611	3.85422945	93.62528229	1.0
21	0.9119900465	0	0	-21.64341545	3.15864706	94.30485535	1.0
22	0.9119900465	0	0	-27.4266777	3.581964493	93.95604706	1.0
23	0.9119900465	0	0	-31.26025772	2.602594376	94.31217957	1.0
24	0.9119900465	0	0	-33.30263519	0.07896204293	95.32458496	1.0
25	0.9119900465	0	0	-33.57076645	-3.217596292	96.94430542	1.0
26	0.9119900465	0	0	-32.10899353	-4.555504322	98.32952881	1.0
[LeftLeg]
19	0	-4.371409893	0	27.66715622	-3.857565403	86.49866486	1.0
20	0	-4.371409893	0	43.45407104	-1.444114685	83.63327026	1.0
21	0	-4.371409893	0	56.83116531	-2.18325901	78.44052124	1.0
22	0	-4.371409893	0	65.72023773	-5.456538677	69.47557831	1.0
23	0	-4.371409893	0	66.53104401	-5.275426865	64.94583893	1.0
24	0	-4.371409893	0	62.33318329	-6.288339138	62.74940872	1.0
25	0	-4.371409893	0	53.72212982	-7.124854565	65.2543869	1.0
26	0	-4.371409893	0	42.3118248	-6.59205389	72.11701965	1.0
[LeftFoot]
19	0	-3.918009996	0	-91.6869278	106.5532684	-26.69333649	1.0
20	0	-3.918009996	0	-73.53104401	107.0413132	-11.09417343	1.0
21	0	-3.918009996	0	-65.62278748	117.6205902	-9.398254395	1.0
22	0	-3.918009996	0	-51.14224625	123.7591019	1.588930249	1.0
23	0	-3.918009996	0	-52.70729065	125.196991	0.2712430954	1.0
24	0	-3.918009996	0	-52.01542664	124.7162399	1.910874963	1.0
25	0	-3.918009996	0	-54.78900909	122.0938568	1.34538269	1.0
26	0	-3.918009996	0	-61.73589325	114.5098724	-4.65801096	1.0
[LeftToeBase]
19	0	-0.5927900076	1.367989898	0	0	0	1.0
20	0	-0.5927900076	1.367989898	0	0	0	1.0
21	0	-0.5927900076	1.367989898	0	0	0	1.0
22	0	-0.5927900076	1.367989898	0	0	0	1.0
23	0	-0.5927900076	1.367989898	0	0	0	1.0
24	0	-0.5927900076	1.367989898	0	0	0	1.0
25	0	-0.5927900076	1.367989898	0	0	0	1.0
26	0	-0.5927900076	1.367989898	0	0	0	1.0
[RightUpLeg]
19	-0.9119900465	0	0	5.738323212	-7.981683254	93.79142761	1.0
20	-0.9119900465	0	0	6.148357391	-7.215766907	94.15776062	1.0
21	-0.9119900465	0	0	6.706855774	-7.149813652	94.53811646	1.0
22	-0.9119900465	0	0	7.305094242	-7.357909203	94.29225922	1.0
23	-0.9119900465	0	0	7.519399643	-8.177778244	93.65826416	1.0
24	-0.9119900465	0	0	8.239133835	-8.024202347	92.8422699	1.0
25	-0.9119900465	0	0	9.579662323	-7.275278091	91.70218658	1.0
26	-0.9119900465	0	0	11.51716614	-7.678087711	90.27098083	1.0
[RightLeg]
19	0	-4.371409893	0	0.5890549421	-5.785208702	92.01741028	1.0
20	0	-4.371409893	0	0.7924361229	-5.751838684	92.76976013	1.0
21	0	-4.371409893	0	0.5830025077	-5.877192974	92.89478302	1.0
22	0	-4.371409893	0	0.7552423477	-5.435656548	92.90335083	1.0
23	0	-4.371409893	0	1.24111867	-4.521778107	92.27102661	1.0
24	0	-4.371409893	0	1.810408592	-4.455142021	91.37747192	1.0
25	0	-4.371409893	0	2.062368155	-4.677996159	91.10728455	1.0
26	0	-4.371409893	0	1.883358955	-5.208312511	91.05820465	1.0
[RightFoot]
19	0	-3.918009996	0	24.21179771	64.43750763	78.16783905	1.0
20	0	-3.918009996	0	18.49018478	64.79838562	73.84934998	1.0
21	0	-3.918009996	0	17.6300602	64.83893585	73.51887512	1.0
22	0	-3.918009996	0	18.30181122	64.42215729	74.51361084	1.0
23	0	-3.918009996	0	22.36458588	63.31848907	79.20927429	1.0
24	0	-3.918009996	0	23.9764576	63.55996704	81.14925385	1.0
25	0	-3.918009996	0	24.66786194	62.51943207	82.64419556	1.0
26	0	-3.918009996	0	27.36305237	61.39092636	85.98916626	1.0
[RightToeBase]
19	0	-0.5927900076	1.367989898	0	0	0	1.0
20	0	-0.5927900076	1.367989898	0	0	0	1.0
21	0	-0.5927900076	1.367989898	0	0	0	1.0
22	0	-0.5927900076	1.367989898	0	0	0	1.0
23	0	-0.5927900076	1.367989898	0	0	0	1.0
24	0	-0.5927900076	1.367989898	0	0	0	1.0
25	0	-0.5927900076	1.367989898	0	0	0	1.0
26	0	-0.5927900076	1.367989898	0	0	0	1.0
[EndOfFile]
